<svg version="1.0" width="512px" height="512px" style="background-color: #444" xmlns="http://www.w3.org/2000/svg">
    <defs></defs>
    <g transform="translate(0,512) scale(1.4,-1.4)" fill="#FF5722FF" stroke="none">
        <path
            d="M 228.279 352.47 C 227.267 340.776 205.044 340.575 199 336 C 186 334 162 329 147 325 C 119 319 75 280 43 232 C 31 215 30 206 39 197 C 45 191 50 176 50 163 C 50 101 113 46 188 46 C 232 45 235 47 238 73 C 240 89 234 119 226 141 C 210 180 217 191 242 166 C 271 138 302 136 321 161 L 332.097 192.019 C 332.097 192.019 280.338 278.262 272.119 311.679 C 267.005 332.474 246.69 343.175 228.279 352.47 Z M 284 254 C 309 201 315 179 307 171 C 294 158 270 156 270 168 C 270 173 258 183 243 191 C 227 198 212 206 208 208 C 190 217 191 167 210 130 C 237 77 230 47 192 56 C 107 76 54 129 65 184 C 69 206 67 211 55 207 C 28 196 51 230 89 255 C 108 269 118 280 110 280 C 78 281 147 309 182 310 C 202 310 222 315 225 321 C 237 340 249 326 284 254 Z">
        </path>
    </g>
</svg>